<svg xmlns="http://www.w3.org/2000/svg" viewBox="0 0 12.57 10.08"><defs><style>.cls-1{fill:#020202;}</style></defs><title>Recurso 2</title><g id="Capa_2" data-name="Capa 2"><g id="Header"><path class="cls-1" d="M10.25,7.35H4.4A.42.42,0,0,1,4,7L2.43.83h-2A.41.41,0,0,1,0,.42.42.42,0,0,1,.42,0H2.76a.41.41,0,0,1,.4.32L4.73,6.51H10l1.53-3.45H6a.42.42,0,0,1,0-.84h6.19a.42.42,0,0,1,.35.19.41.41,0,0,1,0,.4L10.63,7.1A.43.43,0,0,1,10.25,7.35Z"/><circle class="cls-1" cx="5.2" cy="9.35" r="0.73"/><circle class="cls-1" cx="9.19" cy="9.35" r="0.73"/></g></g></svg>