<svg xmlns="http://www.w3.org/2000/svg" viewBox="0 0 16.59 13.31"><defs><style>.cls-1{fill:#fff;}</style></defs><title>Recurso 4</title><g id="Capa_2" data-name="Capa 2"><g id="Header"><path class="cls-1" d="M13.53,9.7H5.81a.54.54,0,0,1-.53-.42L3.21,1.1H.55A.55.55,0,0,1,0,.55.55.55,0,0,1,.55,0H3.64a.56.56,0,0,1,.54.42L6.24,8.6h6.93l2-4.56H7.86a.56.56,0,0,1,0-1.11H16a.57.57,0,0,1,.46.25.58.58,0,0,1,0,.53L14,9.37A.56.56,0,0,1,13.53,9.7Z"/><circle class="cls-1" cx="6.87" cy="12.34" r="0.96"/><circle class="cls-1" cx="12.13" cy="12.34" r="0.96"/></g></g></svg>