<svg xmlns="http://www.w3.org/2000/svg" viewBox="0 0 22.36 9.3"><defs><style>.cls-1{fill:#444;}</style></defs><title>Recurso 7</title><g id="Capa_2" data-name="Capa 2"><g id="Header"><path class="cls-1" d="M10.67,5.2h0L8.65.13A.21.21,0,0,0,8.38,0h0L.2,3.27a.22.22,0,0,0-.09.07A.21.21,0,0,0,0,3.52V9a.21.21,0,0,0,.21.21H9A.21.21,0,0,0,9.23,9V6l1.32-.53A.21.21,0,0,0,10.67,5.2ZM8.81,8.77H.42v-5H8.81ZM3.5,3.31,7,1.91a1.68,1.68,0,0,0,1.21.52l.35.88ZM9.23,5.55v-2A.21.21,0,0,0,9,3.31H9L8.57,2.2s0,0,0,0A.21.21,0,0,0,8.34,2a1.25,1.25,0,0,1-1.1-.47A.19.19,0,0,0,7,1.49h0L2.65,3.2a.25.25,0,0,0-.12.11H1.23L8.34.48,10.2,5.16Z"/><path class="cls-1" d="M1,7.35a1.27,1.27,0,0,1,.85.85.2.2,0,0,0,.2.15H7.16a.19.19,0,0,0,.23-.14h0a1.27,1.27,0,0,1,.85-.85.22.22,0,0,0,.15-.23V5.38a.22.22,0,0,0-.15-.23,1.27,1.27,0,0,1-.85-.85.19.19,0,0,0-.23-.14H2.07a.19.19,0,0,0-.23.14A1.25,1.25,0,0,1,1,5.15a.2.2,0,0,0-.14.23,0,0,0,0,0,0,0V7.09a0,0,0,0,0,0,0A.2.2,0,0,0,1,7.35ZM1.26,5.5a1.68,1.68,0,0,0,.92-.93H7.05A1.68,1.68,0,0,0,8,5.5V7a1.68,1.68,0,0,0-.92.93H2.18A1.68,1.68,0,0,0,1.26,7Z"/><path class="cls-1" d="M4.62,7.51A1.26,1.26,0,1,0,3.36,6.25,1.25,1.25,0,0,0,4.62,7.51Zm0-2.1a.84.84,0,1,1-.84.84A.84.84,0,0,1,4.62,5.41Z"/><path class="cls-1" d="M2.31,6.57a.32.32,0,0,0,.31-.32.32.32,0,0,0-.63,0A.32.32,0,0,0,2.31,6.57Zm0-.42a.09.09,0,0,1,.1.1.1.1,0,0,1-.1.11.11.11,0,0,1-.11-.11A.1.1,0,0,1,2.31,6.15Z"/><path class="cls-1" d="M6.92,6.57a.32.32,0,0,0,.32-.32.32.32,0,0,0-.63,0A.32.32,0,0,0,6.92,6.57Zm0-.42a.1.1,0,0,1,.11.1.11.11,0,0,1-.11.11.11.11,0,0,1-.1-.11A.1.1,0,0,1,6.92,6.15Z"/><path class="cls-1" d="M17.9,6.91h2.55a.16.16,0,0,0,.16-.16V5.32a.15.15,0,0,0-.16-.16H17.9a.15.15,0,0,0-.16.16V6.75A.15.15,0,0,0,17.9,6.91Zm.16-1.44h2.23V6.59H18.06Z"/><path class="cls-1" d="M13.6,4.84h1.27A.15.15,0,0,0,15,4.68a.15.15,0,0,0-.16-.16H13.6a.15.15,0,0,0-.16.16A.16.16,0,0,0,13.6,4.84Z"/><path class="cls-1" d="M15.51,4.84h1.27a.15.15,0,0,0,.16-.16.15.15,0,0,0-.16-.16H15.51a.15.15,0,0,0-.16.16A.16.16,0,0,0,15.51,4.84Z"/><path class="cls-1" d="M13.6,5.47h2.07a.14.14,0,0,0,.16-.15.15.15,0,0,0-.16-.16H13.6a.15.15,0,0,0-.16.16A.15.15,0,0,0,13.6,5.47Z"/><path class="cls-1" d="M16.78,5.16h-.47a.15.15,0,0,0-.16.16.14.14,0,0,0,.16.15h.47a.14.14,0,0,0,.16-.15A.15.15,0,0,0,16.78,5.16Z"/><path class="cls-1" d="M22.21,3.18a.61.61,0,0,0-.43-.24l-.38,0V2.13a.64.64,0,0,0-.64-.64H13.44a.64.64,0,0,0-.64.64v5.1a.65.65,0,0,0,.46.61.62.62,0,0,0,.56.63l7.36.83h.06a.64.64,0,0,0,.64-.55l.48-5.11A.61.61,0,0,0,22.21,3.18Zm-9.09-.57h8v1h-8Zm.32-.8h7.32a.32.32,0,0,1,.32.32v.16h-8V2.13A.33.33,0,0,1,13.44,1.81Zm-.32,5.42V3.88h8V7.23a.31.31,0,0,1-.32.31H13.44A.32.32,0,0,1,13.12,7.23ZM22,3.58l-.48,5.11a.32.32,0,0,1-.35.29l-7.34-.83a.33.33,0,0,1-.29-.29h7.18a.63.63,0,0,0,.64-.63v-4l.37,0a.26.26,0,0,1,.2.11A.34.34,0,0,1,22,3.58Z"/></g></g></svg>