<svg xmlns="http://www.w3.org/2000/svg" viewBox="0 0 10.2 10.07"><defs><style>.cls-1{fill:#020202;}</style></defs><title>Recurso 3</title><g id="Capa_2" data-name="Capa 2"><g id="Header"><path class="cls-1" d="M10.18,7.4a3.6,3.6,0,0,0-2.3-2,3.44,3.44,0,1,0-6.24-2,3.37,3.37,0,0,0,.73,2.1A3.77,3.77,0,0,0,0,7.38a.4.4,0,0,0,.09.44,7.92,7.92,0,0,0,5.15,2.25,6.64,6.64,0,0,0,4.81-2.25A.41.41,0,0,0,10.18,7.4ZM5.08.83A2.61,2.61,0,1,1,2.47,3.44,2.61,2.61,0,0,1,5.08.83Zm.2,8.41h0A7,7,0,0,1,1,7.45,3.84,3.84,0,0,1,3,6.2a3.42,3.42,0,0,0,4.21-.11,3.35,3.35,0,0,1,2,1.36A5.78,5.78,0,0,1,5.28,9.24Z"/></g></g></svg>